# xmcd
#
# Track frame offsets: 
#        150
#        15750
#        36665
#        65250
#        81552
#        104788
#        137219
#        176440
#        187873
#        217391
#
# Disc length: 3377 seconds
#
# Revision: 0
# Processed by: cddbd v1.5.2PL0 Copyright (c) Steve Scherf et al.
# Submitted via: ExactAudioCopyFreeDBPlugin 1.0
#
DISCID=920d2f0a
DTITLE=Ian Parker - Spoonful Of Gold
DYEAR=2018
DGENRE=Blues
TTITLE0=Evil
TTITLE1=Back Door Man
TTITLE2=I Can't Quit You Baby
TTITLE3=Mighty Earthquake and Hurricane
TTITLE4=I Just Want To Make Love To You
TTITLE5=I Can't Understand
TTITLE6=My Love Will Never Die
TTITLE7=The Seventh Son
TTITLE8=Weak Brain, Narrow Mind
TTITLE9=Spoonful
EXTD=
EXTT0=
EXTT1=
EXTT2=
EXTT3=
EXTT4=
EXTT5=
EXTT6=
EXTT7=
EXTT8=
EXTT9=
PLAYORDER=
